<?xml version="1.0" standalone="no"?>
<!DOCTYPE svg PUBLIC "-//W3C//DTD SVG 20010904//EN"
 "http://www.w3.org/TR/2001/REC-SVG-20010904/DTD/svg10.dtd">
<svg version="1.0" xmlns="http://www.w3.org/2000/svg"
 width="256.000000pt" height="256.000000pt" viewBox="0 0 256.000000 256.000000"
 preserveAspectRatio="xMidYMid meet">
<metadata>
Created by potrace 1.11, written by Peter Selinger 2001-2013
</metadata>
<g transform="translate(0.000000,256.000000) scale(0.100000,-0.100000)"
fill="#000000" stroke="none">
<path d="M1059 2526 c-2 -2 -42 -7 -89 -11 -390 -31 -629 -175 -735 -441 -31
-78 -51 -143 -59 -194 -3 -19 -8 -46 -10 -60 -22 -128 -29 -246 -27 -455 2
-272 5 -335 13 -335 4 0 6 -20 4 -45 -1 -24 1 -42 6 -39 4 3 8 -5 8 -18 0 -35
34 -155 63 -225 14 -35 23 -63 19 -63 -4 0 -2 -4 5 -8 6 -4 13 -14 15 -21 2
-8 10 -22 18 -31 34 -39 65 -84 62 -92 -1 -4 2 -7 6 -6 7 3 72 -45 107 -80 8
-6 18 -12 24 -12 6 0 11 -5 11 -12 0 -6 3 -9 6 -5 3 3 22 -3 42 -13 59 -30
111 -50 140 -52 6 -1 12 -4 12 -7 0 -3 12 -7 26 -8 15 0 30 -7 35 -15 6 -9 9
-9 9 -1 0 9 7 10 23 4 12 -5 27 -9 32 -9 71 -5 134 -16 129 -23 -3 -5 4 -5 15
-1 29 11 122 2 114 -11 -4 -6 -1 -7 8 -2 20 13 52 14 67 3 8 -7 12 -7 12 2 0
9 4 9 17 -1 15 -12 16 -12 8 1 -7 12 -6 13 6 3 12 -10 18 -10 27 -1 9 9 12 9
12 0 0 -8 7 -9 25 -2 16 6 25 6 25 -1 0 -6 7 -6 20 1 11 6 20 7 20 2 0 -10 30
-9 47 1 6 4 14 1 17 -5 5 -10 7 -10 12 0 5 10 9 10 22 0 13 -11 14 -11 8 0 -6
10 -2 13 15 10 13 -2 23 -9 21 -16 -1 -8 2 -11 8 -7 6 3 8 11 5 16 -4 5 15 9
42 10 57 1 108 6 143 13 14 2 41 7 60 10 19 3 58 12 87 19 38 10 55 11 63 3 8
-8 11 -7 8 3 -2 7 5 15 14 16 9 2 31 10 49 19 17 9 35 13 39 11 5 -3 10 -1 12
3 1 4 24 20 50 34 34 19 49 23 58 14 8 -8 10 -7 5 5 -4 10 10 28 44 55 27 21
56 50 64 64 9 14 27 38 41 53 14 15 23 27 21 27 -2 0 12 33 31 74 20 41 37 83
39 93 2 10 4 18 5 18 2 0 7 20 20 90 7 33 14 67 17 75 4 8 6 30 5 48 0 17 3
32 6 32 19 0 16 633 -3 732 -3 12 -7 39 -11 58 -55 340 -199 533 -465 626 -41
14 -83 28 -94 30 -56 12 -175 34 -215 39 -48 6 -555 16 -561 11z"/>
<path d="M186 718 c3 -5 10 -6 15 -3 13 9 11 12 -6 12 -8 0 -12 -4 -9 -9z"/>
<path d="M210 700 c0 -5 5 -10 11 -10 5 0 7 5 4 10 -3 6 -8 10 -11 10 -2 0 -4
-4 -4 -10z"/>
<path d="M434 376 c1 -8 5 -18 8 -22 4 -3 5 1 4 10 -1 8 -5 18 -8 22 -4 3 -5
-1 -4 -10z"/>
<path d="M2120 366 c0 -2 8 -10 18 -17 15 -13 16 -12 3 4 -13 16 -21 21 -21
13z"/>
<path d="M2010 339 c0 -5 5 -7 10 -4 6 3 10 8 10 11 0 2 -4 4 -10 4 -5 0 -10
-5 -10 -11z"/>
<path d="M1975 300 c-3 -5 -1 -10 4 -10 6 0 11 5 11 10 0 6 -2 10 -4 10 -3 0
-8 -4 -11 -10z"/>
<path d="M633 285 c0 -8 4 -15 9 -15 4 0 8 4 8 9 0 6 -4 12 -8 15 -5 3 -9 -1
-9 -9z"/>
<path d="M586 278 c3 -5 10 -6 15 -3 13 9 11 12 -6 12 -8 0 -12 -4 -9 -9z"/>
<path d="M695 260 c-3 -5 -1 -10 4 -10 6 0 11 5 11 10 0 6 -2 10 -4 10 -3 0
-8 -4 -11 -10z"/>
<path d="M1810 259 c0 -5 5 -7 10 -4 6 3 10 8 10 11 0 2 -4 4 -10 4 -5 0 -10
-5 -10 -11z"/>
<path d="M1893 263 c4 -3 1 -13 -6 -22 -11 -14 -10 -14 5 -2 16 12 16 31 1 31
-4 0 -3 -3 0 -7z"/>
<path d="M753 245 c0 -8 4 -12 9 -9 5 3 6 10 3 15 -9 13 -12 11 -12 -6z"/>
<path d="M873 245 c0 -8 4 -12 9 -9 5 3 6 10 3 15 -9 13 -12 11 -12 -6z"/>
<path d="M1715 249 c-4 -6 -5 -12 -2 -15 2 -3 7 2 10 11 7 17 1 20 -8 4z"/>
<path d="M906 242 c-3 -5 1 -9 9 -9 8 0 12 4 9 9 -3 4 -7 8 -9 8 -2 0 -6 -4
-9 -8z"/>
<path d="M1653 225 c0 -8 4 -12 9 -9 5 3 6 10 3 15 -9 13 -12 11 -12 -6z"/>
<path d="M775 221 c-3 -5 -2 -12 3 -15 5 -3 9 1 9 9 0 17 -3 19 -12 6z"/>
<path d="M1035 209 c-4 -6 -5 -12 -2 -15 2 -3 7 2 10 11 7 17 1 20 -8 4z"/>
<path d="M1195 209 c-4 -6 -5 -12 -2 -15 2 -3 7 2 10 11 7 17 1 20 -8 4z"/>
<path d="M1230 216 c0 -2 8 -10 18 -17 15 -13 16 -12 3 4 -13 16 -21 21 -21
13z"/>
<path d="M915 200 c3 -5 8 -10 11 -10 2 0 4 5 4 10 0 6 -5 10 -11 10 -5 0 -7
-4 -4 -10z"/>
<path d="M955 200 c3 -5 8 -10 11 -10 2 0 4 5 4 10 0 6 -5 10 -11 10 -5 0 -7
-4 -4 -10z"/>
</g>
</svg>
